<?xml version="1.0" encoding="utf-8"?>
<!-- Generator: Adobe Illustrator 22.1.0, SVG Export Plug-In . SVG Version: 6.00 Build 0)  -->
<svg version="1.1" xmlns="http://www.w3.org/2000/svg" xmlns:xlink="http://www.w3.org/1999/xlink" x="0px" y="0px"
	 viewBox="0 0 1077.2 549.9" style="enable-background:new 0 0 1077.2 549.9;" xml:space="preserve">
<style type="text/css">
	.st0{fill:none;stroke:#B9529F;stroke-linecap:round;stroke-linejoin:round;stroke-miterlimit:10;}
	.st1{display:none;}
	.st2{display:inline;}
	.st3{display:inline;fill:none;stroke:#B9529F;stroke-linecap:round;stroke-linejoin:round;stroke-miterlimit:10;}
	.st4{fill:none;stroke:#B9529F;}
</style>
<g id="Layer_1">
	<g id="LWPOLYLINE_1_">
		<path class="st0" d="M14.2,0.2h1050.3c7.4,0,13.4,6,13.4,13.5v523c0,7.4-6,13.5-13.4,13.5H14.2c-7.4,0-13.4-6-13.4-13.5v-523
			C0.7,6.2,6.7,0.2,14.2,0.2z"/>
	</g>
</g>
<g id="Layer_4" class="st1">
	<g id="LWPOLYLINE_3_" class="st2">
		<path class="st0" d="M1064.4,0.2H14.2c-7.4,0-13.4,6-13.4,13.5v523c0,7.4,6,13.4,13.4,13.4h1050.3c7.4,0,13.5-6,13.5-13.4v-523
			C1077.9,6.2,1071.9,0.2,1064.4,0.2z M257.5,291.6h-2.3v9.1h-19.1v-9.1h-4.3v13.3h-39.7v-13.3h-4.3v9.1h-19.1v-9.1h-2.3v-7.9h2.3
			v-17.8h4.9v-3.4h9.4v3.4h4.9v12.7h4.3v-13.3h39.7v13.3h4.3v-12.7h4.9v-3.4h9.4v3.4h4.9v17.8h2.3V291.6z M366.7,509.5h-2.3v9.2
			h-19.1v-9.2h-4.3v13.3h-39.7v-13.3h-4.3v9.2h-19.1v-9.2h-2.3v-7.9h2.3v-17.8h4.9v-3.4h9.3v3.4h4.9v12.7h4.3v-13.3h39.7v13.3h4.3
			v-12.7h4.9v-3.4h9.4v3.4h4.9v17.8h2.3V509.5z M475.8,291.6h-2.3v9.1h-19.1v-9.1H450v13.3h-39.7v-13.3H406v9.1h-19.1v-9.1h-2.3
			v-7.9h2.3v-17.8h4.9v-3.4h9.3v3.4h4.9v12.7h4.3v-13.3H450v13.3h4.3v-12.7h4.9v-3.4h9.4v3.4h4.9v17.8h2.3V291.6z M694.1,291.6h-2.3
			v9.1h-19.1v-9.1h-4.3v13.3h-39.7v-13.3h-4.3v9.1h-19.1v-9.1h-2.3v-7.9h2.3v-17.8h4.9v-3.4h9.4v3.4h4.9v12.7h4.3v-13.3h39.7v13.3
			h4.3v-12.7h4.9v-3.4h9.4v3.4h4.9v17.8h2.3V291.6z M803.2,509.5h-2.3v9.2h-19.1v-9.2h-4.3v13.3h-39.7v-13.3h-4.3v9.2h-19.1v-9.2
			h-2.3v-7.9h2.3v-17.8h4.9v-3.4h9.4v3.4h4.9v12.7h4.3v-13.3h39.7v13.3h4.3v-12.7h4.9v-3.4h9.3v3.4h4.9v17.8h2.3V509.5z
			 M912.3,291.6H910v9.1h-19.1v-9.1h-4.3v13.3h-39.7v-13.3h-4.3v9.1h-19.1v-9.1h-2.3v-7.9h2.3v-17.8h4.9v-3.4h9.4v3.4h4.9v12.7h4.3
			v-13.3h39.7v13.3h4.3v-12.7h4.9v-3.4h9.3v3.4h4.9v17.8h2.3V291.6z"/>
	</g>
	<rect x="519.5" y="68.2" class="st3" width="39.7" height="39.7"/>
	<g class="st2">
		<rect x="192.1" y="265.2" class="st0" width="39.7" height="0.1"/>
		<rect x="192.1" y="265.2" class="st0" width="39.7" height="0.1"/>
		<rect x="192.1" y="304.9" class="st4" width="39.7" height="0.1"/>
	</g>
	<g class="st2">
		<rect x="410.3" y="265.2" class="st0" width="39.7" height="0.1"/>
		<rect x="410.3" y="265.2" class="st0" width="39.7" height="0.1"/>
		<rect x="410.3" y="304.9" class="st4" width="39.7" height="0.1"/>
	</g>
	<g class="st2">
		<rect x="628.6" y="265.2" class="st0" width="39.7" height="0.1"/>
		<rect x="628.6" y="265.2" class="st0" width="39.7" height="0.1"/>
		<rect x="628.6" y="304.9" class="st4" width="39.7" height="0.1"/>
	</g>
	<g class="st2">
		<rect x="846.9" y="265.2" class="st0" width="39.7" height="0.1"/>
		<rect x="846.9" y="265.2" class="st0" width="39.7" height="0.1"/>
		<rect x="846.9" y="304.9" class="st4" width="39.7" height="0.1"/>
	</g>
	<g id="LWPOLYLINE_2_" class="st2">
		<polygon class="st0" points="257.5,283.7 257.5,291.6 255.2,291.6 255.2,300.8 236.1,300.8 236.1,291.6 231.7,291.6 231.7,304.9 
			192.1,304.9 192.1,291.6 187.7,291.6 187.7,300.8 168.6,300.8 168.6,291.6 166.3,291.6 166.3,283.7 168.6,283.7 168.6,265.9 
			173.5,265.9 173.5,262.5 182.8,262.5 182.8,265.9 187.7,265.9 187.7,278.6 192.1,278.6 192.1,265.3 231.7,265.3 231.7,278.6 
			236.1,278.6 236.1,265.9 241,265.9 241,262.5 250.3,262.5 250.3,265.9 255.2,265.9 255.2,283.7 		"/>
		<path class="st0" d="M1064.4,0.2H14.2c-7.4,0-13.4,6-13.4,13.5v523c0,7.4,6,13.4,13.4,13.4h1050.3c7.4,0,13.5-6,13.5-13.4v-523
			C1077.9,6.2,1071.9,0.2,1064.4,0.2z M257.5,291.6h-2.3v9.1h-19.1v-9.1h-4.3v13.3h-39.7v-13.3h-4.3v9.1h-19.1v-9.1h-2.3v-7.9h2.3
			v-17.8h4.9v-3.4h9.4v3.4h4.9v12.7h4.3v-13.3h39.7v13.3h4.3v-12.7h4.9v-3.4h9.4v3.4h4.9v17.8h2.3V291.6z M366.7,509.5h-2.3v9.2
			h-19.1v-9.2h-4.3v13.3h-39.7v-13.3h-4.3v9.2h-19.1v-9.2h-2.3v-7.9h2.3v-17.8h4.9v-3.4h9.3v3.4h4.9v12.7h4.3v-13.3h39.7v13.3h4.3
			v-12.7h4.9v-3.4h9.4v3.4h4.9v17.8h2.3V509.5z M475.8,291.6h-2.3v9.1h-19.1v-9.1H450v13.3h-39.7v-13.3H406v9.1h-19.1v-9.1h-2.3
			v-7.9h2.3v-17.8h4.9v-3.4h9.3v3.4h4.9v12.7h4.3v-13.3H450v13.3h4.3v-12.7h4.9v-3.4h9.4v3.4h4.9v17.8h2.3V291.6z M694.1,291.6h-2.3
			v9.1h-19.1v-9.1h-4.3v13.3h-39.7v-13.3h-4.3v9.1h-19.1v-9.1h-2.3v-7.9h2.3v-17.8h4.9v-3.4h9.4v3.4h4.9v12.7h4.3v-13.3h39.7v13.3
			h4.3v-12.7h4.9v-3.4h9.4v3.4h4.9v17.8h2.3V291.6z M803.2,509.5h-2.3v9.2h-19.1v-9.2h-4.3v13.3h-39.7v-13.3h-4.3v9.2h-19.1v-9.2
			h-2.3v-7.9h2.3v-17.8h4.9v-3.4h9.4v3.4h4.9v12.7h4.3v-13.3h39.7v13.3h4.3v-12.7h4.9v-3.4h9.3v3.4h4.9v17.8h2.3V509.5z
			 M912.3,291.6H910v9.1h-19.1v-9.1h-4.3v13.3h-39.7v-13.3h-4.3v9.1h-19.1v-9.1h-2.3v-7.9h2.3v-17.8h4.9v-3.4h9.4v3.4h4.9v12.7h4.3
			v-13.3h39.7v13.3h4.3v-12.7h4.9v-3.4h9.3v3.4h4.9v17.8h2.3V291.6z"/>
		<path class="st0" d="M14.2,544.4c-4.3,0-7.8-3.5-7.8-7.8v-523c0-4.3,3.5-7.8,7.8-7.8h1050.3c4.3,0,7.8,3.5,7.8,7.8v523
			c0,4.3-3.5,7.8-7.8,7.8H14.2z"/>
		<polygon class="st0" points="803.2,501.6 803.2,509.5 800.9,509.5 800.9,518.7 781.8,518.7 781.8,509.5 777.4,509.5 777.4,522.8 
			737.7,522.8 737.7,509.5 733.4,509.5 733.4,518.7 714.3,518.7 714.3,509.5 711.9,509.5 711.9,501.6 714.3,501.6 714.3,483.8 
			719.2,483.8 719.2,480.4 728.5,480.4 728.5,483.8 733.4,483.8 733.4,496.5 737.7,496.5 737.7,483.2 777.4,483.2 777.4,496.5 
			781.8,496.5 781.8,483.8 786.6,483.8 786.6,480.4 796,480.4 796,483.8 800.9,483.8 800.9,501.6 		"/>
		<polygon class="st0" points="912.3,283.7 912.3,291.6 910,291.6 910,300.8 890.9,300.8 890.9,291.6 886.5,291.6 886.5,304.9 
			846.9,304.9 846.9,291.6 842.5,291.6 842.5,300.8 823.4,300.8 823.4,291.6 821.1,291.6 821.1,283.7 823.4,283.7 823.4,265.9 
			828.3,265.9 828.3,262.5 837.7,262.5 837.7,265.9 842.5,265.9 842.5,278.6 846.9,278.6 846.9,265.3 886.5,265.3 886.5,278.6 
			890.9,278.6 890.9,265.9 895.8,265.9 895.8,262.5 905.1,262.5 905.1,265.9 910,265.9 910,283.7 		"/>
		<polygon class="st0" points="694.1,283.7 694.1,291.6 691.7,291.6 691.7,300.8 672.6,300.8 672.6,291.6 668.3,291.6 668.3,304.9 
			628.6,304.9 628.6,291.6 624.3,291.6 624.3,300.8 605.1,300.8 605.1,291.6 602.8,291.6 602.8,283.7 605.1,283.7 605.1,265.9 
			610,265.9 610,262.5 619.4,262.5 619.4,265.9 624.3,265.9 624.3,278.6 628.6,278.6 628.6,265.3 668.3,265.3 668.3,278.6 
			672.6,278.6 672.6,265.9 677.5,265.9 677.5,262.5 686.8,262.5 686.8,265.9 691.7,265.9 691.7,283.7 		"/>
		<polygon class="st0" points="475.8,283.7 475.8,291.6 473.5,291.6 473.5,300.8 454.3,300.8 454.3,291.6 450,291.6 450,304.9 
			410.3,304.9 410.3,291.6 406,291.6 406,300.8 386.9,300.8 386.9,291.6 384.5,291.6 384.5,283.7 386.9,283.7 386.9,265.9 
			391.8,265.9 391.8,262.5 401.1,262.5 401.1,265.9 406,265.9 406,278.6 410.3,278.6 410.3,265.3 450,265.3 450,278.6 454.3,278.6 
			454.3,265.9 459.2,265.9 459.2,262.5 468.6,262.5 468.6,265.9 473.5,265.9 473.5,283.7 		"/>
		<polygon class="st0" points="366.7,501.6 366.7,509.5 364.3,509.5 364.3,518.7 345.2,518.7 345.2,509.5 340.9,509.5 340.9,522.8 
			301.2,522.8 301.2,509.5 296.9,509.5 296.9,518.7 277.8,518.7 277.8,509.5 275.4,509.5 275.4,501.6 277.8,501.6 277.8,483.8 
			282.6,483.8 282.6,480.4 292,480.4 292,483.8 296.9,483.8 296.9,496.5 301.2,496.5 301.2,483.2 340.9,483.2 340.9,496.5 
			345.2,496.5 345.2,483.8 350.1,483.8 350.1,480.4 359.5,480.4 359.5,483.8 364.3,483.8 364.3,501.6 		"/>
	</g>
</g>
<g id="Layer_3" class="st1">
</g>
</svg>
