<?xml version="1.0" encoding="utf-8"?>
<!-- Generator: Adobe Illustrator 22.1.0, SVG Export Plug-In . SVG Version: 6.00 Build 0)  -->
<svg version="1.1" xmlns="http://www.w3.org/2000/svg" xmlns:xlink="http://www.w3.org/1999/xlink" x="0px" y="0px"
	 viewBox="0 0 1077.2 549.9" style="enable-background:new 0 0 1077.2 549.9;" xml:space="preserve">
<style type="text/css">
	.st0{display:none;}
	.st1{display:inline;}
	.st2{fill:none;stroke:#B9529F;stroke-linecap:round;stroke-linejoin:round;stroke-miterlimit:10;}
	.st3{display:inline;fill:none;stroke:#B9529F;stroke-linecap:round;stroke-linejoin:round;stroke-miterlimit:10;}
	.st4{fill:none;stroke:#B9529F;}
	.st5{clip-path:url(#SVGID_2_);}
	.st6{fill:none;}
	.st7{fill:#FFFFFF;}
</style>
<g id="Layer_1" class="st0">
	<g id="LWPOLYLINE_9_" class="st1">
		<path class="st2" d="M14.2,0.2h1050.3c7.4,0,13.4,6,13.4,13.5v523c0,7.4-6,13.5-13.4,13.5H14.2c-7.4,0-13.4-6-13.4-13.5v-523
			C0.7,6.2,6.7,0.2,14.2,0.2z"/>
	</g>
	<rect x="519.5" y="68.2" class="st3" width="39.7" height="39.7"/>
	<g class="st1">
		<rect x="192.1" y="265.2" class="st2" width="39.7" height="39.7"/>
		<rect x="192.1" y="265.2" class="st2" width="39.7" height="39.7"/>
		<polygon class="st4" points="166.3,291.6 168.6,291.6 168.6,300.8 187.7,300.8 187.7,291.6 192.1,291.6 192.1,305 231.7,305 
			231.7,291.6 236.1,291.6 236.1,300.8 255.2,300.8 255.2,291.6 257.5,291.6 257.5,283.7 255.2,283.7 255.2,265.9 250.3,265.9 
			250.3,262.5 241,262.5 241,265.9 236.1,265.9 236.1,278.6 231.7,278.6 231.7,265.3 192.1,265.3 192.1,278.6 187.7,278.6 
			187.7,265.9 182.8,265.9 182.8,262.5 173.5,262.5 173.5,265.9 168.6,265.9 168.6,283.7 166.3,283.7 		"/>
	</g>
	<g id="CIRCLE_24_" class="st1">
		<path class="st2" d="M39,88c0-5.5-4.4-9.9-9.9-9.9s-9.9,4.4-9.9,9.9c0,5.5,4.4,9.9,9.9,9.9S39,93.5,39,88L39,88z"/>
	</g>
	<g class="st1">
		<rect x="410.3" y="265.2" class="st2" width="39.7" height="39.7"/>
		<rect x="410.3" y="265.2" class="st2" width="39.7" height="39.7"/>
		<polygon class="st4" points="384.5,291.6 386.9,291.6 386.9,300.8 406,300.8 406,291.6 410.3,291.6 410.3,305 450,305 450,291.6 
			454.3,291.6 454.3,300.8 473.5,300.8 473.5,291.6 475.8,291.6 475.8,283.7 473.5,283.7 473.5,265.9 468.6,265.9 468.6,262.5 
			459.2,262.5 459.2,265.9 454.3,265.9 454.3,278.6 450,278.6 450,265.3 410.3,265.3 410.3,278.6 406,278.6 406,265.9 401.1,265.9 
			401.1,262.5 391.8,262.5 391.8,265.9 386.9,265.9 386.9,283.7 384.5,283.7 		"/>
	</g>
	<g class="st1">
		<rect x="628.6" y="265.2" class="st2" width="39.7" height="39.7"/>
		<rect x="628.6" y="265.2" class="st2" width="39.7" height="39.7"/>
		<polygon class="st4" points="602.8,291.6 605.1,291.6 605.1,300.8 624.3,300.8 624.3,291.6 628.6,291.6 628.6,305 668.3,305 
			668.3,291.6 672.6,291.6 672.6,300.8 691.7,300.8 691.7,291.6 694.1,291.6 694.1,283.7 691.7,283.7 691.7,265.9 686.8,265.9 
			686.8,262.5 677.5,262.5 677.5,265.9 672.6,265.9 672.6,278.6 668.3,278.6 668.3,265.3 628.6,265.3 628.6,278.6 624.3,278.6 
			624.3,265.9 619.4,265.9 619.4,262.5 610,262.5 610,265.9 605.1,265.9 605.1,283.7 602.8,283.7 		"/>
	</g>
	<g class="st1">
		<rect x="846.9" y="265.2" class="st2" width="39.7" height="39.7"/>
		<rect x="846.9" y="265.2" class="st2" width="39.7" height="39.7"/>
		<polygon class="st4" points="821.1,291.6 823.4,291.6 823.4,300.8 842.5,300.8 842.5,291.6 846.9,291.6 846.9,305 886.5,305 
			886.5,291.6 890.9,291.6 890.9,300.8 910,300.8 910,291.6 912.3,291.6 912.3,283.7 910,283.7 910,265.9 905.1,265.9 905.1,262.5 
			895.8,262.5 895.8,265.9 890.9,265.9 890.9,278.6 886.5,278.6 886.5,265.3 846.9,265.3 846.9,278.6 842.5,278.6 842.5,265.9 
			837.6,265.9 837.6,262.5 828.3,262.5 828.3,265.9 823.4,265.9 823.4,283.7 821.1,283.7 		"/>
	</g>
	<g class="st1">
		<rect x="301.2" y="483.2" class="st2" width="39.7" height="39.7"/>
		<rect x="301.2" y="483.2" class="st2" width="39.7" height="39.7"/>
		<polygon class="st4" points="275.4,509.5 277.7,509.5 277.7,518.7 296.9,518.7 296.9,509.5 301.2,509.5 301.2,522.9 340.9,522.9 
			340.9,509.5 345.2,509.5 345.2,518.7 364.3,518.7 364.3,509.5 366.7,509.5 366.7,501.6 364.3,501.6 364.3,483.8 359.5,483.8 
			359.5,480.4 350.1,480.4 350.1,483.8 345.2,483.8 345.2,496.5 340.9,496.5 340.9,483.2 301.2,483.2 301.2,496.5 296.9,496.5 
			296.9,483.8 292,483.8 292,480.4 282.6,480.4 282.6,483.8 277.7,483.8 277.7,501.6 275.4,501.6 		"/>
	</g>
	<g id="CIRCLE_25_" class="st1">
		<path class="st2" d="M1059.5,88c0-5.5-4.4-9.9-9.9-9.9c-5.5,0-9.9,4.4-9.9,9.9c0,5.5,4.4,9.9,9.9,9.9
			C1055,98,1059.5,93.5,1059.5,88L1059.5,88z"/>
	</g>
	<g class="st1">
		<rect x="737.7" y="483.2" class="st2" width="39.7" height="39.7"/>
		<rect x="737.7" y="483.2" class="st2" width="39.7" height="39.7"/>
		<polygon class="st4" points="711.9,509.5 714.3,509.5 714.3,518.7 733.4,518.7 733.4,509.5 737.7,509.5 737.7,522.9 777.4,522.9 
			777.4,509.5 781.7,509.5 781.7,518.7 800.9,518.7 800.9,509.5 803.2,509.5 803.2,501.6 800.9,501.6 800.9,483.8 796,483.8 
			796,480.4 786.6,480.4 786.6,483.8 781.7,483.8 781.7,496.5 777.4,496.5 777.4,483.2 737.7,483.2 737.7,496.5 733.4,496.5 
			733.4,483.8 728.5,483.8 728.5,480.4 719.2,480.4 719.2,483.8 714.3,483.8 714.3,501.6 711.9,501.6 		"/>
	</g>
	<g id="LWPOLYLINE_1_" class="st1">
		<path class="st2" d="M14.2,0.2h1050.3c7.4,0,13.4,6,13.4,13.5v523c0,7.4-6,13.5-13.4,13.5H14.2c-7.4,0-13.4-6-13.4-13.5v-523
			C0.7,6.2,6.7,0.2,14.2,0.2z"/>
	</g>
</g>
<g id="Layer_4">
	<g id="LWPOLYLINE_3_">
		<path class="st2" d="M1064.4,0.2H14.2c-7.4,0-13.4,6-13.4,13.5v523c0,7.4,6,13.4,13.4,13.4h1050.3c7.4,0,13.5-6,13.5-13.4v-523
			C1077.9,6.2,1071.9,0.2,1064.4,0.2z M257.5,291.6h-2.3v9.1h-19.1v-9.1h-4.3v13.3h-39.7v-13.3h-4.3v9.1h-19.1v-9.1h-2.3v-7.9h2.3
			v-17.8h4.9v-3.4h9.4v3.4h4.9v12.7h4.3v-13.3h39.7v13.3h4.3v-12.7h4.9v-3.4h9.4v3.4h4.9v17.8h2.3V291.6z M366.7,509.5h-2.3v9.2
			h-19.1v-9.2h-4.3v13.3h-39.7v-13.3h-4.3v9.2h-19.1v-9.2h-2.3v-7.9h2.3v-17.8h4.9v-3.4h9.3v3.4h4.9v12.7h4.3v-13.3h39.7v13.3h4.3
			v-12.7h4.9v-3.4h9.4v3.4h4.9v17.8h2.3V509.5z M475.8,291.6h-2.3v9.1h-19.1v-9.1H450v13.3h-39.7v-13.3H406v9.1h-19.1v-9.1h-2.3
			v-7.9h2.3v-17.8h4.9v-3.4h9.3v3.4h4.9v12.7h4.3v-13.3H450v13.3h4.3v-12.7h4.9v-3.4h9.4v3.4h4.9v17.8h2.3V291.6z M694.1,291.6h-2.3
			v9.1h-19.1v-9.1h-4.3v13.3h-39.7v-13.3h-4.3v9.1h-19.1v-9.1h-2.3v-7.9h2.3v-17.8h4.9v-3.4h9.4v3.4h4.9v12.7h4.3v-13.3h39.7v13.3
			h4.3v-12.7h4.9v-3.4h9.4v3.4h4.9v17.8h2.3V291.6z M803.2,509.5h-2.3v9.2h-19.1v-9.2h-4.3v13.3h-39.7v-13.3h-4.3v9.2h-19.1v-9.2
			h-2.3v-7.9h2.3v-17.8h4.9v-3.4h9.4v3.4h4.9v12.7h4.3v-13.3h39.7v13.3h4.3v-12.7h4.9v-3.4h9.3v3.4h4.9v17.8h2.3V509.5z
			 M912.3,291.6H910v9.1h-19.1v-9.1h-4.3v13.3h-39.7v-13.3h-4.3v9.1h-19.1v-9.1h-2.3v-7.9h2.3v-17.8h4.9v-3.4h9.4v3.4h4.9v12.7h4.3
			v-13.3h39.7v13.3h4.3v-12.7h4.9v-3.4h9.3v3.4h4.9v17.8h2.3V291.6z"/>
	</g>
	<rect x="519.5" y="68.2" class="st2" width="39.7" height="39.7"/>
	<g>
		<rect x="192.1" y="265.2" class="st2" width="39.7" height="0.1"/>
		<rect x="192.1" y="265.2" class="st2" width="39.7" height="0.1"/>
		<rect x="192.1" y="304.9" class="st4" width="39.7" height="0.1"/>
	</g>
	<g id="CIRCLE_2_">
		<path class="st2" d="M39,88c0-5.5-4.4-9.9-9.9-9.9s-9.9,4.4-9.9,9.9c0,5.5,4.4,9.9,9.9,9.9S39,93.5,39,88L39,88z"/>
	</g>
	<g>
		<rect x="410.3" y="265.2" class="st2" width="39.7" height="0.1"/>
		<rect x="410.3" y="265.2" class="st2" width="39.7" height="0.1"/>
		<rect x="410.3" y="304.9" class="st4" width="39.7" height="0.1"/>
	</g>
	<g>
		<rect x="628.6" y="265.2" class="st2" width="39.7" height="0.1"/>
		<rect x="628.6" y="265.2" class="st2" width="39.7" height="0.1"/>
		<rect x="628.6" y="304.9" class="st4" width="39.7" height="0.1"/>
	</g>
	<g>
		<rect x="846.9" y="265.2" class="st2" width="39.7" height="0.1"/>
		<rect x="846.9" y="265.2" class="st2" width="39.7" height="0.1"/>
		<rect x="846.9" y="304.9" class="st4" width="39.7" height="0.1"/>
	</g>
	<g id="CIRCLE_1_">
		<path class="st2" d="M1059.5,88c0-5.5-4.4-9.9-9.9-9.9c-5.5,0-9.9,4.4-9.9,9.9c0,5.5,4.4,9.9,9.9,9.9
			C1055,98,1059.5,93.5,1059.5,88L1059.5,88z"/>
	</g>
	<g id="LWPOLYLINE_2_">
		<polygon class="st2" points="257.5,283.7 257.5,291.6 255.2,291.6 255.2,300.8 236.1,300.8 236.1,291.6 231.7,291.6 231.7,304.9 
			192.1,304.9 192.1,291.6 187.7,291.6 187.7,300.8 168.6,300.8 168.6,291.6 166.3,291.6 166.3,283.7 168.6,283.7 168.6,265.9 
			173.5,265.9 173.5,262.5 182.8,262.5 182.8,265.9 187.7,265.9 187.7,278.6 192.1,278.6 192.1,265.3 231.7,265.3 231.7,278.6 
			236.1,278.6 236.1,265.9 241,265.9 241,262.5 250.3,262.5 250.3,265.9 255.2,265.9 255.2,283.7 		"/>
		<path class="st2" d="M1064.4,0.2H14.2c-7.4,0-13.4,6-13.4,13.5v523c0,7.4,6,13.4,13.4,13.4h1050.3c7.4,0,13.5-6,13.5-13.4v-523
			C1077.9,6.2,1071.9,0.2,1064.4,0.2z M257.5,291.6h-2.3v9.1h-19.1v-9.1h-4.3v13.3h-39.7v-13.3h-4.3v9.1h-19.1v-9.1h-2.3v-7.9h2.3
			v-17.8h4.9v-3.4h9.4v3.4h4.9v12.7h4.3v-13.3h39.7v13.3h4.3v-12.7h4.9v-3.4h9.4v3.4h4.9v17.8h2.3V291.6z M366.7,509.5h-2.3v9.2
			h-19.1v-9.2h-4.3v13.3h-39.7v-13.3h-4.3v9.2h-19.1v-9.2h-2.3v-7.9h2.3v-17.8h4.9v-3.4h9.3v3.4h4.9v12.7h4.3v-13.3h39.7v13.3h4.3
			v-12.7h4.9v-3.4h9.4v3.4h4.9v17.8h2.3V509.5z M475.8,291.6h-2.3v9.1h-19.1v-9.1H450v13.3h-39.7v-13.3H406v9.1h-19.1v-9.1h-2.3
			v-7.9h2.3v-17.8h4.9v-3.4h9.3v3.4h4.9v12.7h4.3v-13.3H450v13.3h4.3v-12.7h4.9v-3.4h9.4v3.4h4.9v17.8h2.3V291.6z M694.1,291.6h-2.3
			v9.1h-19.1v-9.1h-4.3v13.3h-39.7v-13.3h-4.3v9.1h-19.1v-9.1h-2.3v-7.9h2.3v-17.8h4.9v-3.4h9.4v3.4h4.9v12.7h4.3v-13.3h39.7v13.3
			h4.3v-12.7h4.9v-3.4h9.4v3.4h4.9v17.8h2.3V291.6z M803.2,509.5h-2.3v9.2h-19.1v-9.2h-4.3v13.3h-39.7v-13.3h-4.3v9.2h-19.1v-9.2
			h-2.3v-7.9h2.3v-17.8h4.9v-3.4h9.4v3.4h4.9v12.7h4.3v-13.3h39.7v13.3h4.3v-12.7h4.9v-3.4h9.3v3.4h4.9v17.8h2.3V509.5z
			 M912.3,291.6H910v9.1h-19.1v-9.1h-4.3v13.3h-39.7v-13.3h-4.3v9.1h-19.1v-9.1h-2.3v-7.9h2.3v-17.8h4.9v-3.4h9.4v3.4h4.9v12.7h4.3
			v-13.3h39.7v13.3h4.3v-12.7h4.9v-3.4h9.3v3.4h4.9v17.8h2.3V291.6z"/>
		<polygon class="st2" points="803.2,501.6 803.2,509.5 800.9,509.5 800.9,518.7 781.8,518.7 781.8,509.5 777.4,509.5 777.4,522.8 
			737.7,522.8 737.7,509.5 733.4,509.5 733.4,518.7 714.3,518.7 714.3,509.5 711.9,509.5 711.9,501.6 714.3,501.6 714.3,483.8 
			719.2,483.8 719.2,480.4 728.5,480.4 728.5,483.8 733.4,483.8 733.4,496.5 737.7,496.5 737.7,483.2 777.4,483.2 777.4,496.5 
			781.8,496.5 781.8,483.8 786.6,483.8 786.6,480.4 796,480.4 796,483.8 800.9,483.8 800.9,501.6 		"/>
		<polygon class="st2" points="912.3,283.7 912.3,291.6 910,291.6 910,300.8 890.9,300.8 890.9,291.6 886.5,291.6 886.5,304.9 
			846.9,304.9 846.9,291.6 842.5,291.6 842.5,300.8 823.4,300.8 823.4,291.6 821.1,291.6 821.1,283.7 823.4,283.7 823.4,265.9 
			828.3,265.9 828.3,262.5 837.7,262.5 837.7,265.9 842.5,265.9 842.5,278.6 846.9,278.6 846.9,265.3 886.5,265.3 886.5,278.6 
			890.9,278.6 890.9,265.9 895.8,265.9 895.8,262.5 905.1,262.5 905.1,265.9 910,265.9 910,283.7 		"/>
		<polygon class="st2" points="694.1,283.7 694.1,291.6 691.7,291.6 691.7,300.8 672.6,300.8 672.6,291.6 668.3,291.6 668.3,304.9 
			628.6,304.9 628.6,291.6 624.3,291.6 624.3,300.8 605.1,300.8 605.1,291.6 602.8,291.6 602.8,283.7 605.1,283.7 605.1,265.9 
			610,265.9 610,262.5 619.4,262.5 619.4,265.9 624.3,265.9 624.3,278.6 628.6,278.6 628.6,265.3 668.3,265.3 668.3,278.6 
			672.6,278.6 672.6,265.9 677.5,265.9 677.5,262.5 686.8,262.5 686.8,265.9 691.7,265.9 691.7,283.7 		"/>
		<polygon class="st2" points="475.8,283.7 475.8,291.6 473.5,291.6 473.5,300.8 454.3,300.8 454.3,291.6 450,291.6 450,304.9 
			410.3,304.9 410.3,291.6 406,291.6 406,300.8 386.9,300.8 386.9,291.6 384.5,291.6 384.5,283.7 386.9,283.7 386.9,265.9 
			391.8,265.9 391.8,262.5 401.1,262.5 401.1,265.9 406,265.9 406,278.6 410.3,278.6 410.3,265.3 450,265.3 450,278.6 454.3,278.6 
			454.3,265.9 459.2,265.9 459.2,262.5 468.6,262.5 468.6,265.9 473.5,265.9 473.5,283.7 		"/>
		<polygon class="st2" points="366.7,501.6 366.7,509.5 364.3,509.5 364.3,518.7 345.2,518.7 345.2,509.5 340.9,509.5 340.9,522.8 
			301.2,522.8 301.2,509.5 296.9,509.5 296.9,518.7 277.8,518.7 277.8,509.5 275.4,509.5 275.4,501.6 277.8,501.6 277.8,483.8 
			282.6,483.8 282.6,480.4 292,480.4 292,483.8 296.9,483.8 296.9,496.5 301.2,496.5 301.2,483.2 340.9,483.2 340.9,496.5 
			345.2,496.5 345.2,483.8 350.1,483.8 350.1,480.4 359.5,480.4 359.5,483.8 364.3,483.8 364.3,501.6 		"/>
	</g>
	<g>
		<defs>
			<rect id="SVGID_1_" x="0.7" y="0.2" width="1077.2" height="549.8"/>
		</defs>
		<clipPath id="SVGID_2_">
			<use xlink:href="#SVGID_1_"  style="overflow:visible;"/>
		</clipPath>
		<g class="st5">
			<path class="st6" d="M599.5,278v-0.9c-0.6,0.3-1.3,0.6-1.9,0.9H599.5z"/>
			<path class="st6" d="M713.4,250.6c5.6-7.3,8.4-17,8.4-29.2c0-12.5-2.9-22.3-8.6-29.4c-5.7-7.1-14.2-10.7-25.3-10.7
				c-10.3,0-18.3,3.6-24.1,10.8c-5.8,7.2-8.7,16.7-8.7,28.4c0,13,2.8,23.1,8.5,30.3c2.3,2.9,5.1,5.2,8.3,7v-0.9h20.7v3.4h4.9v0.4
				C704,259.2,709.4,255.9,713.4,250.6z"/>
			<path class="st6" d="M237.4,310.6h-2.8c0.9,1,1.8,2.1,2.7,3.1c3.5,4,7,8.1,10.6,12c0.8,0.9,2.1,1.7,3.2,1.8
				c6,0.2,11.9,0.1,18.9,0.1c-6.3-7.1-12.5-14.1-18.7-21h-13.9V310.6z"/>
			<path class="st6" d="M710.2,324.2c-5.7-7.2-14.2-10.7-25.3-10.7c-10.3,0-18.3,3.6-24.1,10.8c-5.8,7.2-8.7,16.7-8.7,28.4
				c0,13,2.8,23.1,8.5,30.3c5.7,7.2,14.2,10.8,25.6,10.8c10.6,0,18.7-3.7,24.3-11c5.6-7.3,8.4-17,8.4-29.2
				C718.8,341.1,716,331.3,710.2,324.2z"/>
			<path class="st6" d="M1050,258.3c7.3-1.7,12.7-6,16.4-12.8c3.7-6.8,5.5-14.8,5.5-24.1c0-9.3-1.8-17.4-5.5-24.1
				c-3.7-6.8-9.2-11-16.4-12.8c-2.5-0.5-6.7-0.8-12.7-0.8h-15.4v75.4h15.4C1043.4,259.1,1047.6,258.8,1050,258.3z"/>
			<polygon points="599.5,303.3 572.3,391.3 543,295.1 520.3,295.1 556,412.1 589,412.1 621.3,306.5 599.5,306.5 			"/>
			<path d="M734.9,385.6c4.7-9.2,7.1-19.9,7.3-32c-0.3-12.1-2.8-22.8-7.3-32c-4.6-9.2-11.1-16.3-19.5-21.4c-4.8-2.8-10-4.9-15.7-6.1
				v3.2h-2.3v9.2h-23.5v4.1h-30.5c-3,3.4-5.6,7.2-7.7,11.5c-4.6,9.2-6.9,19.7-6.9,31.5c0,11.8,2.3,22.3,7,31.5
				c4.7,9.2,11.3,16.4,19.8,21.6c8.6,5.2,18.5,7.8,29.9,7.8s21.3-2.5,29.7-7.6C723.7,401.9,730.3,394.8,734.9,385.6z M686.2,393.7
				c-11.4,0-19.9-3.6-25.6-10.8c-5.7-7.2-8.5-17.3-8.5-30.3c0-11.7,2.9-21.2,8.7-28.4c5.8-7.2,13.8-10.8,24.1-10.8
				c11.2,0,19.6,3.6,25.3,10.7c5.7,7.1,8.6,17,8.6,29.4c0,12.1-2.8,21.9-8.4,29.2C704.9,390.1,696.8,393.7,686.2,393.7z"/>
			<polygon points="783.8,295.1 761.7,295.1 761.7,412.1 834.2,412.1 834.2,391.4 783.8,391.4 			"/>
			<polygon points="915.7,306.5 892.2,306.5 892.2,310.6 841.2,310.6 841.2,306.5 822,306.5 822,315.7 858.9,315.7 858.9,412.1 
				881,412.1 881,315.7 917.9,315.7 917.9,297.3 915.7,297.3 			"/>
			<polygon points="930.9,412.1 1007.3,412.1 1007.3,391.4 953,391.4 953,361.4 997.5,361.4 997.5,340.7 953,340.7 953,315.7 
				1007.3,315.7 1007.3,295.1 930.9,295.1 			"/>
			<polygon points="1083.8,352.9 1122,295.1 1094.7,295.1 1070.2,334.1 1045.3,295.1 1018.2,295.1 1056.4,352.9 1017,412.1 
				1044.3,412.1 1070.2,371.8 1095.8,412.1 1123,412.1 			"/>
			<path d="M597.5,278c0.7-0.3,1.3-0.6,1.9-0.9v-16.9h4.9v-3.4h14.4c1.1-2.9,1.7-6,1.7-9.1c0-5.4-0.5-9.9-1.6-13.4
				c-1.1-3.5-3.1-6.9-6.2-10c-2.1-2.3-5.3-4.4-9.7-6.5c-4.4-2.1-9.3-3.8-14.9-5.4l-20.3-5.5c-6.9-2-11.4-4.1-13.3-6.3
				c-1.5-1.6-2.3-3.8-2.3-6.5c0-1.8,0.6-3.6,1.8-5.4c1.2-1.7,2.7-3.1,4.5-4.2c3.8-2.2,8.1-3.3,12.8-3.3c5.6,0,10.6,1.4,14.8,4.2
				c2.3,1.6,4.3,3.6,6,6c1.7,2.4,2.9,4.9,3.4,7.5l23.9-4.1c-3.1-12.9-10.6-22.5-22.3-28.8c-6.6-3.6-14.8-5.5-24.5-5.7
				c-12.6,0-22.7,2.8-30.4,8.5c-4.1,3-7.4,6.8-9.7,11.3c-2.4,4.5-3.6,9.3-3.6,14.5c0,4.7,0.7,8.8,2,12.4c1.3,3.6,3.5,6.9,6.5,9.8
				c2.6,2.5,5.7,4.5,9.3,5.9c3.6,1.5,8.5,3.1,14.8,5l21.8,6.3c2.6,0.8,4.7,1.5,6.3,2.1c1.6,0.6,3,1.5,4.1,2.6
				c2.4,2.1,3.6,4.8,3.6,8.1c0,3.7-1.8,6.9-5.4,9.8c-2.1,1.5-4.7,2.7-7.9,3.6c-3.2,0.9-6.4,1.3-9.7,1.3c-3.8,0-7.5-0.8-11-2.4
				c-3.6-1.6-6.7-3.7-9.3-6.3c-1.6-1.6-3-3.6-4.1-5.9s-1.9-4.4-2.4-6.5l-23.1,3.4c1.3,8.8,4.7,16.3,10.2,22.4
				c9.4,10.5,22.4,15.8,38.8,15.8c7.2,0,13.6-0.9,19.4-2.6c1.5-0.4,2.9-1,4.3-1.5V278H597.5z"/>
			<path d="M671.8,257.7c-3.2-1.7-6-4-8.3-7c-5.7-7.2-8.5-17.3-8.5-30.3c0-11.7,2.9-21.2,8.7-28.4c5.8-7.2,13.8-10.8,24.1-10.8
				c11.2,0,19.6,3.6,25.3,10.7c5.7,7.1,8.6,17,8.6,29.4c0,12.1-2.8,21.9-8.4,29.2c-4,5.3-9.4,8.6-16,10.1V278h2.3v3.4
				c6.8-1.1,12.9-3.3,18.5-6.6c8.5-5,15-12.2,19.7-21.4c4.7-9.2,7.1-19.9,7.3-32c-0.3-12.1-2.8-22.8-7.3-32
				c-4.5-9.2-11-16.3-19.5-21.4s-18.4-7.6-29.9-7.6c-11.5,0-21.5,2.6-30.1,7.8c-8.6,5.2-15.1,12.4-19.7,21.6
				c-4.6,9.2-6.9,19.7-6.9,31.5c0,11.8,2.3,22.3,7,31.5c1.2,2.4,2.5,4.6,4,6.7h29.1V257.7z"/>
			<path d="M817.7,278v-17.4c-2.2,0.6-4.5,0.9-6.9,0.9c-5.7,0-10.9-1.7-15.4-5c-4.5-3.3-7.5-7.6-9-12.8c-0.7-2.4-1-5.1-1-8.1v-72.8
				l-22.4,0.2v73c0,4.3,0.4,8.2,1.1,11.7c2.3,11,7.6,19.6,15.9,25.6c8.3,6,18.6,9,30.7,9c1.6,0,3.1-0.1,4.6-0.2V278H817.7z"/>
			<path d="M843.3,259.6h9.4c2-3.7,3.4-7.7,4.4-12.2c0.8-3.5,1.1-7.3,1.1-11.4v-73.1h-22.4v72.8c0,2.5-0.2,4.8-0.6,6.8
				c-1.3,5.4-4.2,9.9-8.8,13.6c-0.3,0.3-0.7,0.5-1,0.7h17.9V259.6z"/>
			<polygon points="890.1,256.9 903.4,256.9 903.4,201.9 954.3,279.9 976.7,279.9 976.7,162.9 954.3,162.9 954.3,240.9 903.4,162.9 
				881,162.9 881,259.6 890.1,259.6 			"/>
			<path d="M1051.3,279.3c9.2-1.1,17.1-4.3,23.7-9.7c6.6-5.4,11.6-12.3,15.1-20.7c3.5-8.4,5.2-17.5,5.2-27.4c0-9.9-1.7-19-5.2-27.4
				c-3.5-8.4-8.5-15.3-15.1-20.7c-6.6-5.4-14.5-8.7-23.7-9.8c-3.8-0.4-8.5-0.6-14-0.6h-37.9v117h37.9
				C1042.9,279.9,1047.5,279.7,1051.3,279.3z M1021.9,183.7h15.4c6,0,10.2,0.3,12.7,0.8c7.3,1.7,12.7,6,16.4,12.8
				c3.7,6.8,5.5,14.8,5.5,24.1c0,9.3-1.8,17.4-5.5,24.1c-3.7,6.8-9.2,11-16.4,12.8c-2.4,0.5-6.6,0.8-12.7,0.8h-15.4V183.7z"/>
			<path d="M-77.6,229.4c0.5,3.8-0.4,7.8,0.2,11.6c1.5,9.5-2,16.3-9.2,22.5c-3.6,3.1-6.6,4.7-11.2,3.5c-3.7-1-6.8-0.1-9.9,3
				c-18.3,18.6-37,36.9-55.5,55.3c-0.8,0.8-1.5,1.7-2.6,3c5.5,0,10.3-0.1,15,0.1c1.4,0.1,3.2,0.6,4.1,1.6c3.4,3.7,6.5,7.7,9.9,11.7
				c-3.1,3.7-5.9,7.4-9.1,10.7c-1.2,1.3-3.2,2.3-4.9,2.4c-4.8,0.3-9.7,0.1-15,0.1c16.1,17.6,31.7,34.7,47.5,52c5-3.1,9.8-6,15-9.2
				c-12.6-14.1-24.9-27.9-37.7-42.3c6.6,0,12.3-0.1,18,0.1c1.5,0.1,3.3,0.8,4.3,1.9c4.5,4.9,8.8,10,13.2,15
				c4.8,5.5,9.7,11,14.9,16.9c2.2-6.6,3.9-12.6,6.3-18.3c1.4-3.5,0.7-5.8-1.7-8.4c-6.2-6.7-12.1-13.7-18.3-20.6
				c8.6-9.3,16.8-18.3,25.2-27.3c0.7-0.8,2-1.3,3-1.6c3.1-0.7,6.3-1.3,9.4-1.6c2.2-0.2,3.1-1,3.6-3.3c4.9-20,9.9-39.9,14.9-59.8
				c1-3.9,1.8-7.8,2.8-12.3c-12.7,10.1-12.9,10.5-13.1,25.4c0,0.7,0,1.3,0,2c-0.1,14.2-0.4,13.9-9.1,24.9c-4.3,5.4-8.8,8-15.5,6.9
				c-2.8-0.4-4.7,0.8-6.6,2.8c-8.9,9.4-17.9,18.7-26.9,27.9c-1,1-2.6,2-4,2.1c-5.7,0.2-11.4,0.1-18.2,0.1c1.5-1.6,2.4-2.6,3.3-3.5
				c20.8-20.8,41.7-41.6,62.4-62.5c1.3-1.3,2.3-3.6,2.3-5.5c0.2-8.4,0-16.8,0.2-25.2c0-1.5,0.7-3.5,1.7-4.5
				c21.1-18.6,42.2-37.1,63.4-55.5c0.8-0.7,2.1-1.5,3.1-1.5c7,0.2,14.1,0.7,22.1,1.1c-1,2.1-1.5,3.9-2.5,5
				c-10.7,11.7-21.5,23.3-32.3,34.9c-0.6,0.7-1.2,1.5-2.4,3.1c6.6-3.5,11.9-6.7,17.6-9.2c12-5.3,21.4-13.4,29.8-23.3
				c4.5-5.3,7.7-10.2,6.6-17.3c-0.1-0.5,0.2-1,0.3-1.5c8.8,0,17.4,0,26,0c0.3,0.3,0.6,0.6,0.8,1c-8.4,8.5-16.8,17-25.7,26.1
				c6,0,10.9-0.3,15.8,0.1c6.2,0.4,7.4-6.3,12.3-8.1c1.1,1.2,2.2,2.5,3.5,3.7c1.6,1.5,3.3,4,5.1,4.2c5.9,0.5,11.8,0.2,18.4,0.2
				c-8.7-9.4-17.7-17.2-26.2-26.9c10,0,18.5,0,26.9,0c0.5,4.3,0,8.8,1.6,12.2c1.7,3.7,5.4,6.5,8.3,9.6c1.1,1.2,2.1,2.5,3.2,3.5
				c0.7,0.7,1.7,1.4,2.6,1.5c5.1,0.1,10.2,0.1,16.3,0.1c-4.7-5.1-8.8-9.4-12.7-13.9c-1-1.1-1.5-2.7-2.6-4.8
				c7.3-0.5,13.5-0.7,19.7-1.3c3-0.3,5.3,0.4,7.5,2.6c3.4,3.3,7.6,6,10.8,9.5c5,5.6,10.5,3.7,16.7,2.5c-1.9-2-3.3-3.9-5.1-5.1
				c-10.1-6.8-13.8-16.1-11.7-28c0.5-2.7-0.7-4.7-2.6-6.6c-25.9-25.8-51.7-51.6-77.5-77.4c-0.9-0.9-1.8-1.8-2.8-2.7
				c-0.8,0.8-1.3,1.2-1.8,1.7c-23,23-46,46-69,69c-4,4-9.6,7.5-11.6,12.4c-2,4.9-0.7,11.3-0.6,17c0.1,2.5-0.8,4.2-2.6,5.8
				c-17.2,15.3-34.3,30.8-51.7,45.9C-75.9,220.2-78.3,223.7-77.6,229.4z M71.9,116.4c18,15.4,35.3,30.2,52.7,45.1
				c-0.2,0.2-0.4,0.4-0.5,0.6C107.3,157,90.6,152,74,146.8c-0.9-0.3-2-1.8-2-2.7C71.8,135.2,71.9,126.3,71.9,116.4z M59.2,116.2
				c0,10.1,0,19.1-0.1,28.1c0,0.9-1,2.2-1.8,2.5C40.6,152,23.7,157,6.4,161.4C23.8,146.5,41.1,131.7,59.2,116.2z"/>
			<path d="M294.9,354.5c-5.5,0-10.3,0-15.1,0c-1.1,0-2.7,0-3.3-0.7c-3.7-4.1-7.2-8.4-10.8-12.7c3.3-3.9,6-7.5,9.2-10.8
				c1.3-1.3,3.5-2.3,5.3-2.5c4.7-0.3,9.4-0.1,14.3-0.1c-10.5-11.6-20.9-23.1-31.3-34.6v4.1h-2.3v9.2h-9.6c6.2,7,12.4,14,18.7,21
				c-7,0-12.9,0.1-18.9-0.1c-1.1,0-2.4-0.9-3.2-1.8c-3.6-3.9-7.1-8-10.6-12c-0.9-1-1.8-2.1-2.7-3.1H207c0.2,0.4,0.5,0.7,0.7,1
				c4,4.7,8,9.2,12.1,13.8c4.4,5.1,8.8,10.2,13.4,15.5c-7.5,8.1-15,15.7-21.8,23.8c-3.3,4-7.1,5.6-11.9,5.9c-2.4,0.2-4.8,0.5-7.1,1
				c-1,0.2-2.5,0.8-2.8,1.6c-1.1,2.9-1.9,5.9-2.9,9.6c4.5,0,8.3,0,12.9,0c-3.9,4.4-7.1,8-10.3,11.7c-2.8,3.2-6.8,6.1-8,9.8
				c-3,9.7-4.7,19.8-7,29.7c-0.4,1.5-1,3.3-2,4.4c-7.9,8.1-16,16.1-24,24.1c-16.8,16.8-33.5,33.5-50.8,50.7c2.7,0.9,4.8,1.9,7,2.2
				c1.6,0.2,3.8-0.1,4.8-1.1c25-24.8,49.9-49.6,74.6-74.6c1.4-1.4,2.3-3.9,2.4-5.9c0.3-6.5,0-13.1,0.2-19.6c0.1-1.7,0.8-3.7,1.8-5
				c5.3-6.5,11-12.7,16.4-19.1c1.8-2.1,3.7-3.3,6.5-2.8c3.3,0.6,5.6-0.8,7.9-3.3c8.6-9.3,17.5-18.3,26.3-27.4c0.7-0.8,1.5-2,2.3-2
				c6.4-0.2,12.8-0.1,20.4-0.1c-2.3,2.1-3.7,3.4-5,4.7c-20.2,20.2-40.3,40.3-60.5,60.4c-2.1,2.1-2.9,4.1-2.8,7
				c0.1,11.7,0.1,23.4-0.2,35.2c0,2-1.1,4.4-2.5,5.8c-12.6,12.8-25.3,25.5-38.1,38.2c-6.7,6.6-13.4,13.2-20.6,20.2
				c2.2,0.8,3.6,1.1,4.9,1.8c3.8,2,6.3,0.7,9.2-2.2c17.2-17.5,34.6-34.7,51.9-52.1c1.2-1.2,2-3.4,2.1-5.2c0.2-9.2,0.6-18.4-0.2-27.6
				c-0.8-8.8,2.1-14.9,8.5-20.8c4.3-4,8.2-5.6,13.7-4.2c2.9,0.8,5.1,0,7.4-2.3c18.6-18.7,37.4-37.2,56.1-55.8
				C292.8,356.9,293.6,356,294.9,354.5z"/>
			<path d="M-26.9,564.3c5-4.8,9.7-9.8,14.8-14.5c1.4-1.3,3.6-2.4,5.4-2.4c48.1-0.1,96.1-0.1,144.2,0c1.6,0,3.6,0.9,4.8,2
				c5.1,4.8,10,10,15.1,14.8c1.1,1.1,2.9,2.1,4.4,2.1c24.9,0.1,49.8,0.1,74.7,0.1c0-0.2,0.1-0.4,0.1-0.6c-0.4-0.2-0.8-0.6-1.3-0.7
				c-55.2-16-110.4-32.1-165.7-48c-2.6-0.7-5.8-0.8-8.4,0c-50.8,14.6-101.5,29.4-152.3,44.2c-5,1.5-10,3-15.6,4.6
				c1,0.4,1.3,0.5,1.5,0.5c24.6,0,49.3,0,73.9-0.1C-29.8,566.3-28,565.4-26.9,564.3z"/>
			<path d="M293.9,442.9c2.4,11.5,4.9,23.1,7.4,34.6h27.6c-5.9-21.8-11.7-43.3-17.7-65.6c-6,9.6-11.6,18.4-17.1,27.3
				C293.5,440.1,293.6,441.7,293.9,442.9z"/>
			<path d="M365.1,478.2h4.9v17.8h2.3v1.5c1.8-0.4,3.7-0.9,5.5-1.3c1.2-0.3,2.7-0.9,3.3-1.8c5.7-8.8,11.3-17.6,17.2-26.9
				c-14,2.5-27.8,4.9-41.7,7.4h8.4V478.2z"/>
			<path d="M295.5,524.3h-23.5v-9.1h-2.3v-19.3h2.3v-15.6c-0.3,0.4-0.7,0.7-1,1.1c-1.4,1.6-2.5,4.1-2.4,6.2
				c0.1,19.4,0.6,38.9,0.9,58.3c0.1,3.8,0,7.6,0,11.6c1.6,0.1,2.4,0.2,3.2,0.2c22.9-0.8,45.8-1.5,68.6-2.4c1.3,0,2.7-0.9,3.6-1.9
				c6.5-6.7,12.8-13.5,19.2-20.3c0.6-0.6,0.9-1.3,2-2.9c-23.8,0-46.7,0-69.9,0c0-0.5-0.1-1.1-0.1-1.6h-0.7V524.3z"/>
			<path d="M291.3,459.8c-4.9,5.2-9.6,10.1-14.1,14.9h15.2C292,469.8,291.7,464.8,291.3,459.8z"/>
			<path d="M315,407.1c8.9,16.1,16.3,33.1,24.4,49.9c16.5-8.2,32.7-16.2,49-24.4c4.9-2.4,10.9-3.9,14.2-7.7c3.4-3.9,4.1-10.2,6-15.4
				c1.7-4.8,3.2-9.6,5-14.9c-21.1,9.2-41.5,18.2-62.1,27.1c-10.8-19.8-21.5-39.4-32.5-59.5c-2,5.7-3.2,10.9-5.5,15.5
				C308.3,388,309.5,397.1,315,407.1z"/>
			<path d="M343.5,380.8c5.1,6.6,10.1,13.2,15.3,20c1.2-0.9,2-1.4,2.9-2.1c14.2-11.2,28.3-22.6,42.7-33.5c5-3.8,8.6-7.6,8.8-14.4
				c0.2-7.2,1.6-14.3,2.6-22.1c-17.9,12.6-35.1,24.8-52.4,37.1c-13.8-16.3-27.5-32.4-41.6-48.9c-1.2,8.8-2.2,16.7-3.3,24.6
				c-0.6,3.9,0.1,7,2.7,10.2C328.8,361.3,336,371.1,343.5,380.8z"/>
			<path d="M381.2,297.3h-2.3v0c-5.6,5.5-11.2,11-16.8,16.5c-14.9-12.7-29.5-25.1-44-37.5c0,8.4-0.2,16.3,0.1,24.3
				c0.1,1.8,1.1,4.1,2.5,5.4c5.7,5.7,11.8,11.2,17.7,16.8c8.2,7.7,16.4,15.5,24.7,23.3c0.5-0.3,0.9-0.5,1.2-0.8
				c11.9-12.9,23.8-25.8,35.7-38.8h-18.6V297.3z"/>
			<path d="M383.4,260.3c2.2-3.2,4.4-6.5,6.6-9.7c0.7-1.1,1.1-2.8,0.9-4.1c-1.2-7.8-2.7-15.6-4.2-24.2
				c-11.6,15.1-22.7,29.7-34.1,44.5c-15.8-10-31.2-19.8-47.4-30.1c1.5,8.3,2.7,15.8,4.3,23.3c0.4,1.7,1.5,3.7,2.9,4.8
				c5.9,4.5,12.1,8.7,18.2,13c9.1,6.4,18.2,12.8,27.4,19.4c7.8-11.3,15.5-22.5,23.2-33.7v-3.2H383.4z"/>
			<path d="M314.5,213.4c-1.4-0.6-3.6-0.3-4.9,0.4c-3.9,2.3-7.5,5-11.2,7.6c-3.6,2.5-3.6,3.2,0.3,5.2c11.9,6.2,23.8,12.3,35.7,18.5
				c3.6,1.9,7.2,3.7,10.9,5.6c8.2-16.3,16.2-32.2,24.1-48.1c0.4-0.8,0.5-2.1,0.2-2.9c-2.3-7.3-4.6-14.5-7.2-22.5
				c-8.9,15.6-17.3,30.6-26,45.9C328.7,219.8,321.7,216.4,314.5,213.4z"/>
			<path d="M191.7,109.7c14.2,0.1,28.5,0.1,42.7,0.1c0.1-0.4,0.1-0.8,0.2-1.2c0-0.1,0.1-0.3,0-0.4c-3.8-7.9-7.6-15.8-11.5-23.6
				c-2.1-4.3-3.4-10-6.8-12.2c-3.3-2.1-9-0.7-13.6-0.6c-10.2,0.2-20.3,0.5-31.1,0.8c6,12.3,11.8,24.1,17.6,35.8
				C189.6,109,190.9,109.7,191.7,109.7z"/>
			<path d="M253.9,160.9c1.1,1.2,3,2.3,4.7,2.4c14.9,1.7,29.8,3.1,45.2,4.7c1.4-15.7,2.8-31.3,4.2-46.9c0.1-0.8-0.3-1.9-0.8-2.5
				c-4.1-5.1-8.2-10.1-12.9-15.8c-2.3,15.7-4.4,30.6-6.6,45.7c-15.4-0.8-30.3-1.7-46.1-2.5C246,151.5,249.8,156.4,253.9,160.9z"/>
			<path d="M210,124.7c5.2,4.4,9.6,8.2,14.1,11.9c0.9,0.8,2.4,1.4,3.5,1.3c14.3-1,28.6-2.2,43.3-3.4c0-1.3,0.1-2.2,0-3.1
				c-1.1-12.8-2.3-25.7-3.5-38.5c-0.1-1.3,0-3.1-0.8-3.8c-4.8-4.4-9.9-8.6-15.3-13.2c0.5,15,1.1,29,1.6,43.3
				C238.6,121,224.7,122.8,210,124.7z"/>
			<path d="M271.4,182.2c1.3,2.7,3.1,3.4,6,3.4c18.2-0.2,36.4-0.2,54.7-0.3c1.2,0,2.3-0.1,3.4-0.2c2.3-9.2,4.6-18,6.7-26.9
				c0.3-1.3,0.3-3-0.3-4c-3.5-6.3-7.2-12.4-11.3-19.3c-5.1,16.6-10,32.5-15,48.5c-16.6-3.5-32.8-7-49.7-10.6
				C268.1,176.5,270,179.2,271.4,182.2z"/>
			<path d="M240.5,514.7c-3.2,13.2-6.3,26.5-9.5,40.1c7.7,2.9,15.2,5.7,23,8.7c2.1-20.3,4.1-40.1,6.3-60.7
				c-6.7,3.5-12.4,6.4-18.1,9.5C241.3,512.6,240.7,513.8,240.5,514.7z"/>
			<path d="M83.9,490.1c-1.5,1.9-3,3.7-4.5,5.6c-2.3,3-4.6,6-7.2,9.3c3.4,1.1,6.3,2.2,9.2,2.9c0.9,0.2,2.5-0.1,3.2-0.8
				c9-9.2,17.9-18.5,27.2-28.3C94.2,477.2,94.2,477.2,83.9,490.1z"/>
			<path d="M49.5,507.9c2.9-0.7,5.8-1.8,9.2-2.9c-6.8-8.7-13.2-16.8-19.6-24.9c-0.5-0.6-1.2-1.3-1.8-1.4c-5.9-0.1-11.8-0.1-18.5-0.1
				c9.5,10,18.3,19.2,27.3,28.4C46.8,507.7,48.4,508.2,49.5,507.9z"/>
			<path d="M24.7,515.9c2.7-0.6,5.3-1.7,8.4-2.8C22,502.1,11.4,491.5,0.7,481c-0.8-0.8-2-1.4-3-1.5c-3.5-0.2-7.1-0.1-11.6-0.1
				c12.4,12.3,23.9,23.9,35.5,35.4C22.3,515.5,23.8,516.1,24.7,515.9z"/>
			<path d="M218.6,552.8c2.4-6.7,4.7-13.1,7.2-20.2c-9.6,4.5-18.4,8.7-28,13.2C205.2,548.3,211.6,550.5,218.6,552.8z"/>
			<path d="M321.6,205.3c3.3,0.8,5.6,1.4,8.2,2.1c0.8-3.1,1.4-5.8,2.3-9.4C328.3,200.6,325.3,202.7,321.6,205.3z"/>
			<path class="st7" d="M59.1,144.3c0.1-9,0.1-18.1,0.1-28.1c-18.1,15.5-35.4,30.4-52.8,45.2c17.3-4.4,34.1-9.5,50.9-14.7
				C58.1,146.5,59.1,145.2,59.1,144.3z"/>
			<path class="st7" d="M74,146.8c16.7,5.2,33.4,10.2,50.1,15.3c0.2-0.2,0.4-0.4,0.5-0.6c-17.4-14.9-34.7-29.7-52.7-45.1
				c0,9.9-0.1,18.8,0.1,27.7C72,145,73.1,146.5,74,146.8z"/>
			<path d="M162.9,306.5v-3.1c-18.4,10.5-36.6,21-55,31.6c2.3-17.2,4.5-33.7,6.8-51.1c-28.8,16.5-56.8,32.5-84.9,48.6
				c-0.1-0.9-0.2-1.3-0.2-1.7c1.8-11.9,3.6-23.9,5.6-35.8c0.2-1.2,1.5-2.4,2.5-3.2c20.3-15.5,40.6-31,61-46.4
				c1.5-1.2,3.8-1.8,5.8-1.8c39.4-0.1,78.9,0,118.3-0.2c2.6,0,5.5-0.9,7.7-2.4c15.1-10.2,30-20.7,45-31.1c0.8-0.5,1.4-1.2,2.7-2.3
				c-1.6,0-2.2,0-2.9,0c-78.2,0-156.4,0-234.6,0.1c-1.9,0-3.9,0.6-5.6,1.6c-18.4,10.7-36.8,21.4-55,32.3c-1.8,1.1-3.5,3.3-4,5.3
				c-10.2,40.3-20.3,80.7-30.4,121.1c-1.2,4.6-2.2,9.3-3.5,14.8c27.9-16,55-31.6,82.4-47.3c-2.5,17.6-4.8,34.6-7.3,52.5
				c1.5-0.9,2.7-1.6,3.8-2.3l0.8-0.5c0.6-0.3,1.2-0.6,1.8-0.9c1.8-0.7,3.2-1.5,4.2-2.6l4.3-2.5c0,0.1,0,0.3,0,0.4
				c0.8-0.6,1.5-1.2,2.2-1.7l7-4c0.8-0.2,1.4-0.6,1.9-1.1l3.7-2.1c0,0,0,0,0,0c19-11,37.6-21.7,56.6-32.6c0.1,1.3,0.2,1.8,0.1,2.3
				l-6.3,37.2c-1.3,1.2-3.1,2-4.5,3.1c-19.6,14.9-39.1,29.8-58.8,44.6c-1.7,1.3-4.3,2.1-6.5,2.1c-40,0.1-79.9,0.1-119.9,0.2
				c-2.3,0-5,0.9-6.9,2.2c-9,5.9-17.8,12.2-26.6,18.3c-7,4.9-14.1,9.8-21.1,14.7c0.1,0.3,0.2,0.5,0.2,0.8c1.1,0,2.3,0,3.4,0
				c78.6,0,157.2,0,235.8-0.1c2,0,4.2-0.6,5.9-1.6c18.3-10.6,36.5-21.4,54.8-31.9c2.8-1.6,4.2-3.6,4.9-6.6
				c9.2-37.1,18.4-74.2,27.6-111.2c0.1-0.6,0.3-1.2,0.4-1.7v-3.7H162.9z M109.1,381.7c0,0.5-0.8,0.9-1.3,1.4c0,0.1,0,0.1,0,0.2
				c0,0,0,0,0,0c-0.1,0-0.1,0-0.2,0c-2.4,4.9-5.5,0.8-8.3,0.8c2.8-0.3,5.6-0.5,8.3-0.8c0,0,0-0.1,0.1-0.1c0,0,0,0,0.1-0.1
				c-0.1-2.2-0.4-4.4-0.3-6.5c0.2-2.9-0.3-5-3.8-5.1c1.6-0.4,3.3-0.8,5.4-1.3C109.2,374.1,109.2,377.9,109.1,381.7z"/>
			<path d="M103.8,371.4c3.5,0.1,4,2.2,3.8,5.1c-0.1,2.2,0.1,4.4,0.3,6.5c0.5-0.5,1.3-0.9,1.3-1.4c0.1-3.8,0.1-7.6,0.1-11.5
				C107,370.6,105.4,371,103.8,371.4z"/>
			<path d="M107.9,383.3c0-0.1,0-0.1,0-0.2c0,0-0.1,0-0.1,0.1C107.8,383.2,107.8,383.3,107.9,383.3z"/>
			<path d="M107.7,383.3c-2.8,0.3-5.6,0.5-8.3,0.8C102.2,384.1,105.3,388.2,107.7,383.3z"/>
			<path d="M107.8,383.2c0,0,0,0.1-0.1,0.1c0.1,0,0.1,0,0.2,0c0,0,0,0,0,0c0,0,0,0,0,0L107.8,383.2z"/>
			<path d="M107.9,383.3C107.9,383.3,107.9,383.3,107.9,383.3c0,0-0.1-0.1-0.1-0.1L107.9,383.3z"/>
			<path d="M597.1,278v0.2c0.1-0.1,0.3-0.1,0.4-0.2H597.1z"/>
			<path class="st2" d="M277,474.8v0.2c0.1-0.1,0.1-0.2,0.2-0.2H277z"/>
			<path d="M381.2,260.3v3.2c0.7-1.1,1.5-2.1,2.2-3.2H381.2z"/>
		</g>
	</g>
</g>
<g id="Layer_3" class="st0">
</g>
</svg>
